<svg xmlns="http://www.w3.org/2000/svg" xmlns:xlink="http://www.w3.org/1999/xlink" width="214" zoomAndPan="magnify" viewBox="0 0 160.5 51.749998" height="69" preserveAspectRatio="xMidYMid meet" version="1.0"><defs><g/><clipPath id="47594eb52c"><path d="M 0.136719 0 L 159.867188 0 L 159.867188 51.5 L 0.136719 51.5 Z M 0.136719 0 " clip-rule="nonzero"/></clipPath><clipPath id="8291e3c58b"><path d="M 14 4.636719 L 41.933594 4.636719 L 41.933594 32 L 14 32 Z M 14 4.636719 " clip-rule="nonzero"/></clipPath><clipPath id="1311361a9e"><path d="M 0.136719 19 L 28 19 L 28 46.433594 L 0.136719 46.433594 Z M 0.136719 19 " clip-rule="nonzero"/></clipPath></defs><g clip-path="url(#47594eb52c)"><path fill="#ffffff" d="M 0.136719 0 L 159.867188 0 L 159.867188 51.5 L 0.136719 51.5 Z M 0.136719 0 " fill-opacity="1" fill-rule="nonzero"/></g><g clip-path="url(#8291e3c58b)"><path fill="#67dcff" d="M 41.921875 25.574219 C 41.921875 29.050781 39.121094 31.863281 35.660156 31.863281 L 22.832031 31.863281 C 18.394531 31.863281 14.796875 28.25 14.796875 23.796875 L 14.796875 10.921875 C 14.796875 7.449219 17.597656 4.636719 21.058594 4.636719 C 24.519531 4.636719 27.324219 7.449219 27.324219 10.921875 L 27.324219 19.289062 L 35.660156 19.289062 C 39.121094 19.289062 41.921875 22.113281 41.921875 25.574219 Z M 41.921875 25.574219 " fill-opacity="1" fill-rule="nonzero"/></g><g clip-path="url(#1311361a9e)"><path fill="#587dff" d="M 0.148438 25.496094 C 0.148438 22.019531 2.949219 19.207031 6.414062 19.207031 L 19.242188 19.207031 C 23.675781 19.207031 27.277344 22.820312 27.277344 27.273438 L 27.277344 40.148438 C 27.277344 43.621094 24.476562 46.433594 21.011719 46.433594 C 17.550781 46.433594 14.75 43.621094 14.75 40.148438 L 14.75 31.78125 L 6.414062 31.78125 C 2.949219 31.78125 0.148438 28.96875 0.148438 25.496094 Z M 0.148438 25.496094 " fill-opacity="1" fill-rule="nonzero"/></g><path fill="#2720ff" d="M 27.277344 27.273438 L 27.277344 31.863281 L 22.832031 31.863281 C 18.394531 31.863281 14.796875 28.25 14.796875 23.796875 L 14.796875 19.207031 L 19.242188 19.207031 C 23.675781 19.207031 27.277344 22.820312 27.277344 27.273438 Z M 27.277344 27.273438 " fill-opacity="1" fill-rule="nonzero"/><g fill="#2720ff" fill-opacity="1"><g transform="translate(48.14702, 18.093885)"><g><path d="M 1.359375 -10.546875 L 5.203125 -10.546875 C 6.015625 -10.546875 6.757812 -10.40625 7.4375 -10.125 C 8.113281 -9.851562 8.703125 -9.484375 9.203125 -9.015625 C 9.703125 -8.546875 10.085938 -7.988281 10.359375 -7.34375 C 10.640625 -6.695312 10.78125 -6.007812 10.78125 -5.28125 C 10.78125 -4.539062 10.640625 -3.847656 10.359375 -3.203125 C 10.085938 -2.566406 9.703125 -2.007812 9.203125 -1.53125 C 8.703125 -1.0625 8.113281 -0.6875 7.4375 -0.40625 C 6.757812 -0.132812 6.015625 0 5.203125 0 L 1.359375 0 Z M 5.203125 -2.109375 C 5.671875 -2.109375 6.101562 -2.1875 6.5 -2.34375 C 6.90625 -2.507812 7.25 -2.734375 7.53125 -3.015625 C 7.820312 -3.296875 8.046875 -3.628906 8.203125 -4.015625 C 8.359375 -4.398438 8.4375 -4.820312 8.4375 -5.28125 C 8.4375 -5.726562 8.359375 -6.144531 8.203125 -6.53125 C 8.046875 -6.914062 7.820312 -7.25 7.53125 -7.53125 C 7.25 -7.820312 6.90625 -8.046875 6.5 -8.203125 C 6.101562 -8.359375 5.671875 -8.4375 5.203125 -8.4375 L 3.625 -8.4375 L 3.625 -2.109375 Z M 5.203125 -2.109375 "/></g></g></g><g fill="#2720ff" fill-opacity="1"><g transform="translate(59.29709, 18.093885)"><g><path d="M 6.40625 0.21875 C 5.59375 0.21875 4.835938 0.078125 4.140625 -0.203125 C 3.441406 -0.492188 2.832031 -0.890625 2.3125 -1.390625 C 1.800781 -1.890625 1.398438 -2.472656 1.109375 -3.140625 C 0.816406 -3.804688 0.671875 -4.519531 0.671875 -5.28125 C 0.671875 -6.03125 0.816406 -6.738281 1.109375 -7.40625 C 1.398438 -8.070312 1.800781 -8.65625 2.3125 -9.15625 C 2.832031 -9.65625 3.441406 -10.050781 4.140625 -10.34375 C 4.835938 -10.632812 5.59375 -10.78125 6.40625 -10.78125 C 7.21875 -10.78125 7.972656 -10.632812 8.671875 -10.34375 C 9.367188 -10.050781 9.972656 -9.65625 10.484375 -9.15625 C 11.003906 -8.65625 11.410156 -8.070312 11.703125 -7.40625 C 11.992188 -6.738281 12.140625 -6.03125 12.140625 -5.28125 C 12.140625 -4.519531 11.992188 -3.804688 11.703125 -3.140625 C 11.410156 -2.472656 11.003906 -1.890625 10.484375 -1.390625 C 9.972656 -0.890625 9.367188 -0.492188 8.671875 -0.203125 C 7.972656 0.078125 7.21875 0.21875 6.40625 0.21875 Z M 6.40625 -1.890625 C 6.875 -1.890625 7.316406 -1.972656 7.734375 -2.140625 C 8.148438 -2.316406 8.507812 -2.554688 8.8125 -2.859375 C 9.113281 -3.171875 9.351562 -3.53125 9.53125 -3.9375 C 9.707031 -4.351562 9.796875 -4.800781 9.796875 -5.28125 C 9.796875 -5.75 9.707031 -6.1875 9.53125 -6.59375 C 9.351562 -7.007812 9.113281 -7.367188 8.8125 -7.671875 C 8.507812 -7.984375 8.148438 -8.226562 7.734375 -8.40625 C 7.316406 -8.582031 6.875 -8.671875 6.40625 -8.671875 C 5.9375 -8.671875 5.492188 -8.582031 5.078125 -8.40625 C 4.671875 -8.226562 4.3125 -7.984375 4 -7.671875 C 3.695312 -7.367188 3.457031 -7.007812 3.28125 -6.59375 C 3.101562 -6.1875 3.015625 -5.75 3.015625 -5.28125 C 3.015625 -4.800781 3.101562 -4.351562 3.28125 -3.9375 C 3.457031 -3.53125 3.695312 -3.171875 4 -2.859375 C 4.3125 -2.554688 4.671875 -2.316406 5.078125 -2.140625 C 5.492188 -1.972656 5.9375 -1.890625 6.40625 -1.890625 Z M 6.40625 -1.890625 "/></g></g></g><g fill="#2720ff" fill-opacity="1"><g transform="translate(71.803267, 18.093885)"><g><path d="M 6.40625 0.21875 C 5.59375 0.21875 4.835938 0.078125 4.140625 -0.203125 C 3.441406 -0.492188 2.832031 -0.890625 2.3125 -1.390625 C 1.800781 -1.890625 1.398438 -2.472656 1.109375 -3.140625 C 0.816406 -3.804688 0.671875 -4.519531 0.671875 -5.28125 C 0.671875 -6.03125 0.816406 -6.738281 1.109375 -7.40625 C 1.398438 -8.070312 1.800781 -8.65625 2.3125 -9.15625 C 2.832031 -9.65625 3.441406 -10.050781 4.140625 -10.34375 C 4.835938 -10.632812 5.59375 -10.78125 6.40625 -10.78125 C 7.144531 -10.78125 7.789062 -10.671875 8.34375 -10.453125 C 8.90625 -10.234375 9.367188 -9.988281 9.734375 -9.71875 C 10.171875 -9.414062 10.546875 -9.066406 10.859375 -8.671875 L 9.34375 -7.15625 C 9.125 -7.4375 8.867188 -7.691406 8.578125 -7.921875 C 8.328125 -8.109375 8.019531 -8.28125 7.65625 -8.4375 C 7.289062 -8.59375 6.875 -8.671875 6.40625 -8.671875 C 5.9375 -8.671875 5.492188 -8.582031 5.078125 -8.40625 C 4.671875 -8.226562 4.3125 -7.984375 4 -7.671875 C 3.695312 -7.367188 3.457031 -7.007812 3.28125 -6.59375 C 3.101562 -6.1875 3.015625 -5.75 3.015625 -5.28125 C 3.015625 -4.800781 3.101562 -4.351562 3.28125 -3.9375 C 3.457031 -3.53125 3.695312 -3.171875 4 -2.859375 C 4.3125 -2.554688 4.671875 -2.316406 5.078125 -2.140625 C 5.492188 -1.972656 5.9375 -1.890625 6.40625 -1.890625 C 6.894531 -1.890625 7.328125 -1.96875 7.703125 -2.125 C 8.078125 -2.28125 8.394531 -2.453125 8.65625 -2.640625 C 8.957031 -2.859375 9.210938 -3.109375 9.421875 -3.390625 L 10.9375 -1.890625 C 10.625 -1.492188 10.242188 -1.140625 9.796875 -0.828125 C 9.421875 -0.566406 8.945312 -0.328125 8.375 -0.109375 C 7.8125 0.109375 7.15625 0.21875 6.40625 0.21875 Z M 6.40625 0.21875 "/></g></g></g><g fill="#2720ff" fill-opacity="1"><g transform="translate(82.727319, 18.093885)"><g/></g></g><g fill="#2720ff" fill-opacity="1"><g transform="translate(85.590028, 18.093885)"><g><path d="M 6.40625 0.21875 C 5.59375 0.21875 4.835938 0.078125 4.140625 -0.203125 C 3.441406 -0.492188 2.832031 -0.890625 2.3125 -1.390625 C 1.800781 -1.890625 1.398438 -2.472656 1.109375 -3.140625 C 0.816406 -3.804688 0.671875 -4.519531 0.671875 -5.28125 C 0.671875 -6.03125 0.816406 -6.738281 1.109375 -7.40625 C 1.398438 -8.070312 1.800781 -8.65625 2.3125 -9.15625 C 2.832031 -9.65625 3.441406 -10.050781 4.140625 -10.34375 C 4.835938 -10.632812 5.59375 -10.78125 6.40625 -10.78125 C 7.21875 -10.78125 7.972656 -10.632812 8.671875 -10.34375 C 9.367188 -10.050781 9.972656 -9.65625 10.484375 -9.15625 C 11.003906 -8.65625 11.410156 -8.070312 11.703125 -7.40625 C 11.992188 -6.738281 12.140625 -6.03125 12.140625 -5.28125 C 12.140625 -4.519531 11.992188 -3.804688 11.703125 -3.140625 C 11.410156 -2.472656 11.003906 -1.890625 10.484375 -1.390625 C 9.972656 -0.890625 9.367188 -0.492188 8.671875 -0.203125 C 7.972656 0.078125 7.21875 0.21875 6.40625 0.21875 Z M 6.40625 -1.890625 C 6.875 -1.890625 7.316406 -1.972656 7.734375 -2.140625 C 8.148438 -2.316406 8.507812 -2.554688 8.8125 -2.859375 C 9.113281 -3.171875 9.351562 -3.53125 9.53125 -3.9375 C 9.707031 -4.351562 9.796875 -4.800781 9.796875 -5.28125 C 9.796875 -5.75 9.707031 -6.1875 9.53125 -6.59375 C 9.351562 -7.007812 9.113281 -7.367188 8.8125 -7.671875 C 8.507812 -7.984375 8.148438 -8.226562 7.734375 -8.40625 C 7.316406 -8.582031 6.875 -8.671875 6.40625 -8.671875 C 5.9375 -8.671875 5.492188 -8.582031 5.078125 -8.40625 C 4.671875 -8.226562 4.3125 -7.984375 4 -7.671875 C 3.695312 -7.367188 3.457031 -7.007812 3.28125 -6.59375 C 3.101562 -6.1875 3.015625 -5.75 3.015625 -5.28125 C 3.015625 -4.800781 3.101562 -4.351562 3.28125 -3.9375 C 3.457031 -3.53125 3.695312 -3.171875 4 -2.859375 C 4.3125 -2.554688 4.671875 -2.316406 5.078125 -2.140625 C 5.492188 -1.972656 5.9375 -1.890625 6.40625 -1.890625 Z M 6.40625 -1.890625 "/></g></g></g><g fill="#2720ff" fill-opacity="1"><g transform="translate(98.096208, 18.093885)"><g><path d="M 0.296875 -7.3125 L 1.890625 -10.859375 L 3.625 -9.875 L 1.5 -6.640625 Z M 0.296875 -7.3125 "/></g></g></g><g fill="#2720ff" fill-opacity="1"><g transform="translate(48.14702, 31.52898)"><g><path d="M 6.40625 0.21875 C 5.59375 0.21875 4.835938 0.078125 4.140625 -0.203125 C 3.441406 -0.492188 2.832031 -0.890625 2.3125 -1.390625 C 1.800781 -1.890625 1.398438 -2.472656 1.109375 -3.140625 C 0.816406 -3.804688 0.671875 -4.519531 0.671875 -5.28125 C 0.671875 -6.03125 0.816406 -6.738281 1.109375 -7.40625 C 1.398438 -8.070312 1.800781 -8.65625 2.3125 -9.15625 C 2.832031 -9.65625 3.441406 -10.050781 4.140625 -10.34375 C 4.835938 -10.632812 5.59375 -10.78125 6.40625 -10.78125 C 7.144531 -10.78125 7.789062 -10.671875 8.34375 -10.453125 C 8.90625 -10.234375 9.367188 -9.988281 9.734375 -9.71875 C 10.171875 -9.414062 10.546875 -9.066406 10.859375 -8.671875 L 9.34375 -7.15625 C 9.125 -7.4375 8.867188 -7.691406 8.578125 -7.921875 C 8.328125 -8.109375 8.019531 -8.28125 7.65625 -8.4375 C 7.289062 -8.59375 6.875 -8.671875 6.40625 -8.671875 C 5.9375 -8.671875 5.492188 -8.582031 5.078125 -8.40625 C 4.671875 -8.226562 4.3125 -7.984375 4 -7.671875 C 3.695312 -7.367188 3.457031 -7.007812 3.28125 -6.59375 C 3.101562 -6.1875 3.015625 -5.75 3.015625 -5.28125 C 3.015625 -4.800781 3.101562 -4.351562 3.28125 -3.9375 C 3.457031 -3.53125 3.695312 -3.171875 4 -2.859375 C 4.3125 -2.554688 4.671875 -2.316406 5.078125 -2.140625 C 5.492188 -1.972656 5.9375 -1.890625 6.40625 -1.890625 C 6.894531 -1.890625 7.328125 -1.96875 7.703125 -2.125 C 8.078125 -2.28125 8.394531 -2.453125 8.65625 -2.640625 C 8.957031 -2.859375 9.210938 -3.109375 9.421875 -3.390625 L 10.9375 -1.890625 C 10.625 -1.492188 10.242188 -1.140625 9.796875 -0.828125 C 9.421875 -0.566406 8.945312 -0.328125 8.375 -0.109375 C 7.8125 0.109375 7.15625 0.21875 6.40625 0.21875 Z M 6.40625 0.21875 "/></g></g></g><g fill="#2720ff" fill-opacity="1"><g transform="translate(59.071074, 31.52898)"><g><path d="M 1.359375 -10.546875 L 3.625 -10.546875 L 3.625 -2.109375 L 8.515625 -2.109375 L 8.515625 0 L 1.359375 0 Z M 1.359375 -10.546875 "/></g></g></g><g fill="#2720ff" fill-opacity="1"><g transform="translate(67.584254, 31.52898)"><g><path d="M 6.40625 0.21875 C 5.59375 0.21875 4.835938 0.078125 4.140625 -0.203125 C 3.441406 -0.492188 2.832031 -0.890625 2.3125 -1.390625 C 1.800781 -1.890625 1.398438 -2.472656 1.109375 -3.140625 C 0.816406 -3.804688 0.671875 -4.519531 0.671875 -5.28125 C 0.671875 -6.03125 0.816406 -6.738281 1.109375 -7.40625 C 1.398438 -8.070312 1.800781 -8.65625 2.3125 -9.15625 C 2.832031 -9.65625 3.441406 -10.050781 4.140625 -10.34375 C 4.835938 -10.632812 5.59375 -10.78125 6.40625 -10.78125 C 7.21875 -10.78125 7.972656 -10.632812 8.671875 -10.34375 C 9.367188 -10.050781 9.972656 -9.65625 10.484375 -9.15625 C 11.003906 -8.65625 11.410156 -8.070312 11.703125 -7.40625 C 11.992188 -6.738281 12.140625 -6.03125 12.140625 -5.28125 C 12.140625 -4.519531 11.992188 -3.804688 11.703125 -3.140625 C 11.410156 -2.472656 11.003906 -1.890625 10.484375 -1.390625 C 9.972656 -0.890625 9.367188 -0.492188 8.671875 -0.203125 C 7.972656 0.078125 7.21875 0.21875 6.40625 0.21875 Z M 6.40625 -1.890625 C 6.875 -1.890625 7.316406 -1.972656 7.734375 -2.140625 C 8.148438 -2.316406 8.507812 -2.554688 8.8125 -2.859375 C 9.113281 -3.171875 9.351562 -3.53125 9.53125 -3.9375 C 9.707031 -4.351562 9.796875 -4.800781 9.796875 -5.28125 C 9.796875 -5.75 9.707031 -6.1875 9.53125 -6.59375 C 9.351562 -7.007812 9.113281 -7.367188 8.8125 -7.671875 C 8.507812 -7.984375 8.148438 -8.226562 7.734375 -8.40625 C 7.316406 -8.582031 6.875 -8.671875 6.40625 -8.671875 C 5.9375 -8.671875 5.492188 -8.582031 5.078125 -8.40625 C 4.671875 -8.226562 4.3125 -7.984375 4 -7.671875 C 3.695312 -7.367188 3.457031 -7.007812 3.28125 -6.59375 C 3.101562 -6.1875 3.015625 -5.75 3.015625 -5.28125 C 3.015625 -4.800781 3.101562 -4.351562 3.28125 -3.9375 C 3.457031 -3.53125 3.695312 -3.171875 4 -2.859375 C 4.3125 -2.554688 4.671875 -2.316406 5.078125 -2.140625 C 5.492188 -1.972656 5.9375 -1.890625 6.40625 -1.890625 Z M 6.40625 -1.890625 "/></g></g></g><g fill="#2720ff" fill-opacity="1"><g transform="translate(80.090432, 31.52898)"><g><path d="M 6.40625 0.21875 C 5.59375 0.21875 4.835938 0.078125 4.140625 -0.203125 C 3.441406 -0.492188 2.832031 -0.890625 2.3125 -1.390625 C 1.800781 -1.890625 1.398438 -2.472656 1.109375 -3.140625 C 0.816406 -3.804688 0.671875 -4.519531 0.671875 -5.28125 C 0.671875 -6.03125 0.816406 -6.738281 1.109375 -7.40625 C 1.398438 -8.070312 1.800781 -8.65625 2.3125 -9.15625 C 2.832031 -9.65625 3.441406 -10.050781 4.140625 -10.34375 C 4.835938 -10.632812 5.59375 -10.78125 6.40625 -10.78125 C 7.144531 -10.78125 7.789062 -10.671875 8.34375 -10.453125 C 8.90625 -10.234375 9.367188 -9.988281 9.734375 -9.71875 C 10.171875 -9.414062 10.546875 -9.066406 10.859375 -8.671875 L 9.34375 -7.15625 C 9.125 -7.4375 8.867188 -7.691406 8.578125 -7.921875 C 8.328125 -8.109375 8.019531 -8.28125 7.65625 -8.4375 C 7.289062 -8.59375 6.875 -8.671875 6.40625 -8.671875 C 5.9375 -8.671875 5.492188 -8.582031 5.078125 -8.40625 C 4.671875 -8.226562 4.3125 -7.984375 4 -7.671875 C 3.695312 -7.367188 3.457031 -7.007812 3.28125 -6.59375 C 3.101562 -6.1875 3.015625 -5.75 3.015625 -5.28125 C 3.015625 -4.800781 3.101562 -4.351562 3.28125 -3.9375 C 3.457031 -3.53125 3.695312 -3.171875 4 -2.859375 C 4.3125 -2.554688 4.671875 -2.316406 5.078125 -2.140625 C 5.492188 -1.972656 5.9375 -1.890625 6.40625 -1.890625 C 6.894531 -1.890625 7.328125 -1.96875 7.703125 -2.125 C 8.078125 -2.28125 8.394531 -2.453125 8.65625 -2.640625 C 8.957031 -2.859375 9.210938 -3.109375 9.421875 -3.390625 L 10.9375 -1.890625 C 10.625 -1.492188 10.242188 -1.140625 9.796875 -0.828125 C 9.421875 -0.566406 8.945312 -0.328125 8.375 -0.109375 C 7.8125 0.109375 7.15625 0.21875 6.40625 0.21875 Z M 6.40625 0.21875 "/></g></g></g><g fill="#2720ff" fill-opacity="1"><g transform="translate(91.014485, 31.52898)"><g><path d="M 1.359375 -10.546875 L 3.625 -10.546875 L 3.625 -6.03125 L 7.6875 -10.546875 L 10.40625 -10.546875 L 6.484375 -6.1875 L 10.703125 0 L 8.0625 0 L 4.96875 -4.515625 L 3.625 -3.09375 L 3.625 0 L 1.359375 0 Z M 1.359375 -10.546875 "/></g></g></g><g fill="#545454" fill-opacity="1"><g transform="translate(48.036052, 44.506475)"><g><path d="M 1 -7.765625 L 3.828125 -7.765625 C 4.421875 -7.765625 4.96875 -7.660156 5.46875 -7.453125 C 5.96875 -7.253906 6.398438 -6.976562 6.765625 -6.625 C 7.140625 -6.28125 7.425781 -5.867188 7.625 -5.390625 C 7.832031 -4.921875 7.9375 -4.421875 7.9375 -3.890625 C 7.9375 -3.347656 7.832031 -2.835938 7.625 -2.359375 C 7.425781 -1.890625 7.140625 -1.476562 6.765625 -1.125 C 6.398438 -0.78125 5.96875 -0.503906 5.46875 -0.296875 C 4.96875 -0.0976562 4.421875 0 3.828125 0 L 1 0 Z M 3.828125 -1.546875 C 4.171875 -1.546875 4.488281 -1.601562 4.78125 -1.71875 C 5.070312 -1.84375 5.320312 -2.007812 5.53125 -2.21875 C 5.75 -2.425781 5.914062 -2.671875 6.03125 -2.953125 C 6.15625 -3.242188 6.21875 -3.554688 6.21875 -3.890625 C 6.21875 -4.210938 6.15625 -4.515625 6.03125 -4.796875 C 5.914062 -5.085938 5.75 -5.335938 5.53125 -5.546875 C 5.320312 -5.753906 5.070312 -5.914062 4.78125 -6.03125 C 4.488281 -6.15625 4.171875 -6.21875 3.828125 -6.21875 L 2.65625 -6.21875 L 2.65625 -1.546875 Z M 3.828125 -1.546875 "/></g></g></g><g fill="#545454" fill-opacity="1"><g transform="translate(56.243269, 44.506475)"><g><path d="M 2.109375 0.109375 C 1.859375 0.109375 1.628906 0.0703125 1.421875 0 C 1.222656 -0.0820312 1.050781 -0.191406 0.90625 -0.328125 C 0.757812 -0.472656 0.644531 -0.640625 0.5625 -0.828125 C 0.476562 -1.015625 0.4375 -1.21875 0.4375 -1.4375 C 0.4375 -1.882812 0.578125 -2.265625 0.859375 -2.578125 C 1.148438 -2.890625 1.546875 -3.09375 2.046875 -3.1875 L 3.765625 -3.5 C 3.742188 -3.6875 3.648438 -3.851562 3.484375 -4 C 3.328125 -4.144531 3.109375 -4.21875 2.828125 -4.21875 C 2.640625 -4.21875 2.46875 -4.1875 2.3125 -4.125 C 2.15625 -4.0625 2.03125 -3.988281 1.9375 -3.90625 C 1.800781 -3.8125 1.691406 -3.710938 1.609375 -3.609375 L 0.71875 -4.5 C 0.875 -4.6875 1.0625 -4.859375 1.28125 -5.015625 C 1.476562 -5.148438 1.710938 -5.269531 1.984375 -5.375 C 2.253906 -5.488281 2.570312 -5.546875 2.9375 -5.546875 C 3.289062 -5.546875 3.609375 -5.488281 3.890625 -5.375 C 4.171875 -5.269531 4.414062 -5.117188 4.625 -4.921875 C 4.832031 -4.722656 4.988281 -4.492188 5.09375 -4.234375 C 5.207031 -3.972656 5.265625 -3.691406 5.265625 -3.390625 L 5.265625 0 L 3.765625 0 L 3.765625 -0.671875 L 3.71875 -0.671875 C 3.59375 -0.515625 3.457031 -0.382812 3.3125 -0.28125 C 3.175781 -0.175781 3.003906 -0.0820312 2.796875 0 C 2.597656 0.0703125 2.367188 0.109375 2.109375 0.109375 Z M 2.609375 -1.109375 C 2.941406 -1.109375 3.21875 -1.21875 3.4375 -1.4375 C 3.65625 -1.664062 3.765625 -1.960938 3.765625 -2.328125 L 3.765625 -2.4375 L 2.546875 -2.21875 C 2.359375 -2.175781 2.207031 -2.109375 2.09375 -2.015625 C 1.988281 -1.921875 1.9375 -1.804688 1.9375 -1.671875 C 1.9375 -1.492188 1.992188 -1.351562 2.109375 -1.25 C 2.222656 -1.15625 2.390625 -1.109375 2.609375 -1.109375 Z M 2.609375 -1.109375 "/></g></g></g><g fill="#545454" fill-opacity="1"><g transform="translate(62.010468, 44.506475)"><g><path d="M 2.5 0.109375 C 2.125 0.109375 1.789062 0.0546875 1.5 -0.046875 C 1.207031 -0.148438 0.960938 -0.265625 0.765625 -0.390625 C 0.523438 -0.523438 0.328125 -0.691406 0.171875 -0.890625 L 1.046875 -1.828125 C 1.160156 -1.710938 1.289062 -1.609375 1.4375 -1.515625 C 1.5625 -1.429688 1.710938 -1.359375 1.890625 -1.296875 C 2.066406 -1.242188 2.269531 -1.21875 2.5 -1.21875 C 2.75 -1.21875 2.921875 -1.253906 3.015625 -1.328125 C 3.109375 -1.398438 3.15625 -1.492188 3.15625 -1.609375 C 3.15625 -1.710938 3.085938 -1.796875 2.953125 -1.859375 C 2.816406 -1.929688 2.644531 -2 2.4375 -2.0625 C 2.226562 -2.132812 2.003906 -2.210938 1.765625 -2.296875 C 1.535156 -2.390625 1.316406 -2.503906 1.109375 -2.640625 C 0.898438 -2.773438 0.726562 -2.941406 0.59375 -3.140625 C 0.457031 -3.335938 0.390625 -3.585938 0.390625 -3.890625 C 0.390625 -4.109375 0.4375 -4.316406 0.53125 -4.515625 C 0.625 -4.710938 0.757812 -4.890625 0.9375 -5.046875 C 1.125 -5.203125 1.351562 -5.320312 1.625 -5.40625 C 1.894531 -5.5 2.203125 -5.546875 2.546875 -5.546875 C 2.898438 -5.546875 3.207031 -5.5 3.46875 -5.40625 C 3.726562 -5.320312 3.945312 -5.226562 4.125 -5.125 C 4.332031 -5 4.507812 -4.863281 4.65625 -4.71875 L 3.765625 -3.765625 C 3.679688 -3.847656 3.578125 -3.925781 3.453125 -4 C 3.347656 -4.050781 3.21875 -4.097656 3.0625 -4.140625 C 2.914062 -4.191406 2.742188 -4.21875 2.546875 -4.21875 C 2.359375 -4.21875 2.21875 -4.179688 2.125 -4.109375 C 2.039062 -4.035156 2 -3.960938 2 -3.890625 C 2 -3.785156 2.066406 -3.695312 2.203125 -3.625 C 2.335938 -3.550781 2.507812 -3.476562 2.71875 -3.40625 C 2.925781 -3.34375 3.144531 -3.265625 3.375 -3.171875 C 3.613281 -3.085938 3.835938 -2.976562 4.046875 -2.84375 C 4.253906 -2.71875 4.425781 -2.550781 4.5625 -2.34375 C 4.695312 -2.144531 4.765625 -1.898438 4.765625 -1.609375 C 4.765625 -1.367188 4.71875 -1.144531 4.625 -0.9375 C 4.53125 -0.726562 4.382812 -0.546875 4.1875 -0.390625 C 4 -0.242188 3.765625 -0.125 3.484375 -0.03125 C 3.203125 0.0625 2.875 0.109375 2.5 0.109375 Z M 2.5 0.109375 "/></g></g></g><g fill="#545454" fill-opacity="1"><g transform="translate(66.834937, 44.506475)"><g><path d="M 0.78125 -7.765625 L 2.28125 -7.765625 L 2.28125 -4.65625 L 2.328125 -4.65625 C 2.441406 -4.820312 2.578125 -4.972656 2.734375 -5.109375 C 2.867188 -5.210938 3.035156 -5.3125 3.234375 -5.40625 C 3.429688 -5.5 3.664062 -5.546875 3.9375 -5.546875 C 4.207031 -5.546875 4.460938 -5.488281 4.703125 -5.375 C 4.953125 -5.269531 5.164062 -5.117188 5.34375 -4.921875 C 5.53125 -4.734375 5.675781 -4.5 5.78125 -4.21875 C 5.882812 -3.9375 5.9375 -3.617188 5.9375 -3.265625 L 5.9375 0 L 4.4375 0 L 4.4375 -3.046875 C 4.4375 -3.378906 4.347656 -3.640625 4.171875 -3.828125 C 3.992188 -4.015625 3.75 -4.109375 3.4375 -4.109375 C 3.101562 -4.109375 2.828125 -3.992188 2.609375 -3.765625 C 2.390625 -3.535156 2.28125 -3.242188 2.28125 -2.890625 L 2.28125 0 L 0.78125 0 Z M 0.78125 -7.765625 "/></g></g></g><g fill="#545454" fill-opacity="1"><g transform="translate(73.2676, 44.506475)"><g><path d="M 4.046875 0.109375 C 3.753906 0.109375 3.5 0.0625 3.28125 -0.03125 C 3.070312 -0.125 2.894531 -0.222656 2.75 -0.328125 C 2.582031 -0.460938 2.441406 -0.613281 2.328125 -0.78125 L 2.28125 -0.78125 L 2.28125 0 L 0.78125 0 L 0.78125 -7.765625 L 2.28125 -7.765625 L 2.28125 -4.65625 L 2.328125 -4.65625 C 2.441406 -4.820312 2.582031 -4.972656 2.75 -5.109375 C 2.894531 -5.210938 3.070312 -5.3125 3.28125 -5.40625 C 3.5 -5.5 3.753906 -5.546875 4.046875 -5.546875 C 4.367188 -5.546875 4.675781 -5.472656 4.96875 -5.328125 C 5.257812 -5.191406 5.519531 -5 5.75 -4.75 C 5.976562 -4.5 6.15625 -4.203125 6.28125 -3.859375 C 6.414062 -3.515625 6.484375 -3.132812 6.484375 -2.71875 C 6.484375 -2.300781 6.414062 -1.914062 6.28125 -1.5625 C 6.15625 -1.21875 5.976562 -0.921875 5.75 -0.671875 C 5.519531 -0.421875 5.257812 -0.226562 4.96875 -0.09375 C 4.675781 0.0390625 4.367188 0.109375 4.046875 0.109375 Z M 3.609375 -1.28125 C 3.796875 -1.28125 3.972656 -1.316406 4.140625 -1.390625 C 4.316406 -1.460938 4.46875 -1.5625 4.59375 -1.6875 C 4.71875 -1.8125 4.816406 -1.960938 4.890625 -2.140625 C 4.960938 -2.316406 5 -2.507812 5 -2.71875 C 5 -2.925781 4.960938 -3.117188 4.890625 -3.296875 C 4.816406 -3.472656 4.71875 -3.625 4.59375 -3.75 C 4.46875 -3.875 4.316406 -3.972656 4.140625 -4.046875 C 3.972656 -4.117188 3.796875 -4.15625 3.609375 -4.15625 C 3.410156 -4.15625 3.226562 -4.117188 3.0625 -4.046875 C 2.894531 -3.972656 2.742188 -3.875 2.609375 -3.75 C 2.484375 -3.625 2.382812 -3.472656 2.3125 -3.296875 C 2.25 -3.117188 2.21875 -2.925781 2.21875 -2.71875 C 2.21875 -2.507812 2.25 -2.316406 2.3125 -2.140625 C 2.382812 -1.960938 2.484375 -1.8125 2.609375 -1.6875 C 2.742188 -1.5625 2.894531 -1.460938 3.0625 -1.390625 C 3.226562 -1.316406 3.410156 -1.28125 3.609375 -1.28125 Z M 3.609375 -1.28125 "/></g></g></g><g fill="#545454" fill-opacity="1"><g transform="translate(79.922075, 44.506475)"><g><path d="M 3.265625 0.109375 C 2.867188 0.109375 2.492188 0.0351562 2.140625 -0.109375 C 1.796875 -0.253906 1.488281 -0.457031 1.21875 -0.71875 C 0.957031 -0.976562 0.753906 -1.273438 0.609375 -1.609375 C 0.460938 -1.953125 0.390625 -2.320312 0.390625 -2.71875 C 0.390625 -3.101562 0.460938 -3.46875 0.609375 -3.8125 C 0.753906 -4.15625 0.957031 -4.457031 1.21875 -4.71875 C 1.488281 -4.976562 1.796875 -5.179688 2.140625 -5.328125 C 2.492188 -5.472656 2.867188 -5.546875 3.265625 -5.546875 C 3.671875 -5.546875 4.046875 -5.472656 4.390625 -5.328125 C 4.742188 -5.179688 5.050781 -4.976562 5.3125 -4.71875 C 5.582031 -4.457031 5.789062 -4.15625 5.9375 -3.8125 C 6.082031 -3.46875 6.15625 -3.101562 6.15625 -2.71875 C 6.15625 -2.320312 6.082031 -1.953125 5.9375 -1.609375 C 5.789062 -1.273438 5.582031 -0.976562 5.3125 -0.71875 C 5.050781 -0.457031 4.742188 -0.253906 4.390625 -0.109375 C 4.046875 0.0351562 3.671875 0.109375 3.265625 0.109375 Z M 3.265625 -1.28125 C 3.460938 -1.28125 3.644531 -1.316406 3.8125 -1.390625 C 3.988281 -1.460938 4.140625 -1.5625 4.265625 -1.6875 C 4.390625 -1.8125 4.484375 -1.960938 4.546875 -2.140625 C 4.617188 -2.316406 4.65625 -2.507812 4.65625 -2.71875 C 4.65625 -2.925781 4.617188 -3.117188 4.546875 -3.296875 C 4.484375 -3.472656 4.390625 -3.625 4.265625 -3.75 C 4.140625 -3.875 3.988281 -3.972656 3.8125 -4.046875 C 3.644531 -4.117188 3.460938 -4.15625 3.265625 -4.15625 C 3.078125 -4.15625 2.894531 -4.117188 2.71875 -4.046875 C 2.550781 -3.972656 2.40625 -3.875 2.28125 -3.75 C 2.15625 -3.625 2.054688 -3.472656 1.984375 -3.296875 C 1.921875 -3.117188 1.890625 -2.925781 1.890625 -2.71875 C 1.890625 -2.507812 1.921875 -2.316406 1.984375 -2.140625 C 2.054688 -1.960938 2.15625 -1.8125 2.28125 -1.6875 C 2.40625 -1.5625 2.550781 -1.460938 2.71875 -1.390625 C 2.894531 -1.316406 3.078125 -1.28125 3.265625 -1.28125 Z M 3.265625 -1.28125 "/></g></g></g><g fill="#545454" fill-opacity="1"><g transform="translate(86.24383, 44.506475)"><g><path d="M 2.109375 0.109375 C 1.859375 0.109375 1.628906 0.0703125 1.421875 0 C 1.222656 -0.0820312 1.050781 -0.191406 0.90625 -0.328125 C 0.757812 -0.472656 0.644531 -0.640625 0.5625 -0.828125 C 0.476562 -1.015625 0.4375 -1.21875 0.4375 -1.4375 C 0.4375 -1.882812 0.578125 -2.265625 0.859375 -2.578125 C 1.148438 -2.890625 1.546875 -3.09375 2.046875 -3.1875 L 3.765625 -3.5 C 3.742188 -3.6875 3.648438 -3.851562 3.484375 -4 C 3.328125 -4.144531 3.109375 -4.21875 2.828125 -4.21875 C 2.640625 -4.21875 2.46875 -4.1875 2.3125 -4.125 C 2.15625 -4.0625 2.03125 -3.988281 1.9375 -3.90625 C 1.800781 -3.8125 1.691406 -3.710938 1.609375 -3.609375 L 0.71875 -4.5 C 0.875 -4.6875 1.0625 -4.859375 1.28125 -5.015625 C 1.476562 -5.148438 1.710938 -5.269531 1.984375 -5.375 C 2.253906 -5.488281 2.570312 -5.546875 2.9375 -5.546875 C 3.289062 -5.546875 3.609375 -5.488281 3.890625 -5.375 C 4.171875 -5.269531 4.414062 -5.117188 4.625 -4.921875 C 4.832031 -4.722656 4.988281 -4.492188 5.09375 -4.234375 C 5.207031 -3.972656 5.265625 -3.691406 5.265625 -3.390625 L 5.265625 0 L 3.765625 0 L 3.765625 -0.671875 L 3.71875 -0.671875 C 3.59375 -0.515625 3.457031 -0.382812 3.3125 -0.28125 C 3.175781 -0.175781 3.003906 -0.0820312 2.796875 0 C 2.597656 0.0703125 2.367188 0.109375 2.109375 0.109375 Z M 2.609375 -1.109375 C 2.941406 -1.109375 3.21875 -1.21875 3.4375 -1.4375 C 3.65625 -1.664062 3.765625 -1.960938 3.765625 -2.328125 L 3.765625 -2.4375 L 2.546875 -2.21875 C 2.359375 -2.175781 2.207031 -2.109375 2.09375 -2.015625 C 1.988281 -1.921875 1.9375 -1.804688 1.9375 -1.671875 C 1.9375 -1.492188 1.992188 -1.351562 2.109375 -1.25 C 2.222656 -1.15625 2.390625 -1.109375 2.609375 -1.109375 Z M 2.609375 -1.109375 "/></g></g></g><g fill="#545454" fill-opacity="1"><g transform="translate(92.011028, 44.506475)"><g><path d="M 0.71875 -5.4375 L 2.21875 -5.4375 L 2.21875 -4.65625 L 2.28125 -4.65625 C 2.394531 -4.820312 2.53125 -4.972656 2.6875 -5.109375 C 2.820312 -5.210938 2.988281 -5.3125 3.1875 -5.40625 C 3.382812 -5.5 3.617188 -5.546875 3.890625 -5.546875 L 4 -5.546875 L 4 -3.9375 C 3.957031 -3.945312 3.914062 -3.953125 3.875 -3.953125 C 3.832031 -3.960938 3.773438 -3.972656 3.703125 -3.984375 C 3.640625 -3.992188 3.570312 -4 3.5 -4 C 3.132812 -4 2.828125 -3.867188 2.578125 -3.609375 C 2.335938 -3.347656 2.21875 -2.992188 2.21875 -2.546875 L 2.21875 0 L 0.71875 0 Z M 0.71875 -5.4375 "/></g></g></g><g fill="#545454" fill-opacity="1"><g transform="translate(96.003672, 44.506475)"><g><path d="M 2.828125 0.109375 C 2.515625 0.109375 2.207031 0.0390625 1.90625 -0.09375 C 1.613281 -0.226562 1.351562 -0.421875 1.125 -0.671875 C 0.894531 -0.921875 0.710938 -1.21875 0.578125 -1.5625 C 0.453125 -1.914062 0.390625 -2.300781 0.390625 -2.71875 C 0.390625 -3.132812 0.453125 -3.515625 0.578125 -3.859375 C 0.710938 -4.203125 0.894531 -4.5 1.125 -4.75 C 1.351562 -5 1.613281 -5.191406 1.90625 -5.328125 C 2.207031 -5.472656 2.515625 -5.546875 2.828125 -5.546875 C 3.117188 -5.546875 3.367188 -5.5 3.578125 -5.40625 C 3.796875 -5.3125 3.976562 -5.210938 4.125 -5.109375 C 4.289062 -4.972656 4.429688 -4.820312 4.546875 -4.65625 L 4.609375 -4.65625 L 4.609375 -7.765625 L 6.109375 -7.765625 L 6.109375 0 L 4.609375 0 L 4.609375 -0.78125 L 4.546875 -0.78125 C 4.429688 -0.613281 4.289062 -0.460938 4.125 -0.328125 C 3.976562 -0.222656 3.796875 -0.125 3.578125 -0.03125 C 3.367188 0.0625 3.117188 0.109375 2.828125 0.109375 Z M 3.265625 -1.28125 C 3.460938 -1.28125 3.644531 -1.316406 3.8125 -1.390625 C 3.988281 -1.460938 4.140625 -1.5625 4.265625 -1.6875 C 4.390625 -1.8125 4.484375 -1.960938 4.546875 -2.140625 C 4.617188 -2.316406 4.65625 -2.507812 4.65625 -2.71875 C 4.65625 -2.925781 4.617188 -3.117188 4.546875 -3.296875 C 4.484375 -3.472656 4.390625 -3.625 4.265625 -3.75 C 4.140625 -3.875 3.988281 -3.972656 3.8125 -4.046875 C 3.644531 -4.117188 3.460938 -4.15625 3.265625 -4.15625 C 3.078125 -4.15625 2.894531 -4.117188 2.71875 -4.046875 C 2.550781 -3.972656 2.40625 -3.875 2.28125 -3.75 C 2.15625 -3.625 2.054688 -3.472656 1.984375 -3.296875 C 1.921875 -3.117188 1.890625 -2.925781 1.890625 -2.71875 C 1.890625 -2.507812 1.921875 -2.316406 1.984375 -2.140625 C 2.054688 -1.960938 2.15625 -1.8125 2.28125 -1.6875 C 2.40625 -1.5625 2.550781 -1.460938 2.71875 -1.390625 C 2.894531 -1.316406 3.078125 -1.28125 3.265625 -1.28125 Z M 3.265625 -1.28125 "/></g></g></g></svg>