<svg xmlns="http://www.w3.org/2000/svg" xmlns:xlink="http://www.w3.org/1999/xlink" width="217" zoomAndPan="magnify" viewBox="0 0 162.75 54.75" height="73" preserveAspectRatio="xMidYMid meet" version="1.0"><defs><g/><clipPath id="f2be9dcff3"><path d="M 14 6.167969 L 42.203125 6.167969 L 42.203125 34 L 14 34 Z M 14 6.167969 " clip-rule="nonzero"/></clipPath><clipPath id="b2d96401db"><path d="M 0.246094 20 L 28 20 L 28 48.125 L 0.246094 48.125 Z M 0.246094 20 " clip-rule="nonzero"/></clipPath></defs><g clip-path="url(#f2be9dcff3)"><path fill="#67dcff" d="M 42.191406 27.1875 C 42.191406 30.675781 39.378906 33.5 35.902344 33.5 L 23.027344 33.5 C 18.574219 33.5 14.960938 29.871094 14.960938 25.402344 L 14.960938 12.480469 C 14.960938 8.992188 17.773438 6.167969 21.246094 6.167969 C 24.722656 6.167969 27.535156 8.992188 27.535156 12.480469 L 27.535156 20.878906 L 35.902344 20.878906 C 39.378906 20.878906 42.191406 23.710938 42.191406 27.1875 Z M 42.191406 27.1875 " fill-opacity="1" fill-rule="nonzero"/></g><g clip-path="url(#b2d96401db)"><path fill="#587dff" d="M 0.257812 27.105469 C 0.257812 23.617188 3.070312 20.796875 6.546875 20.796875 L 19.421875 20.796875 C 23.875 20.796875 27.488281 24.421875 27.488281 28.890625 L 27.488281 41.816406 C 27.488281 45.304688 24.675781 48.125 21.203125 48.125 C 17.726562 48.125 14.914062 45.304688 14.914062 41.816406 L 14.914062 33.417969 L 6.546875 33.417969 C 3.070312 33.417969 0.257812 30.59375 0.257812 27.105469 Z M 0.257812 27.105469 " fill-opacity="1" fill-rule="nonzero"/></g><path fill="#2720ff" d="M 27.488281 28.890625 L 27.488281 33.5 L 23.027344 33.5 C 18.574219 33.5 14.960938 29.871094 14.960938 25.402344 L 14.960938 20.796875 L 19.421875 20.796875 C 23.875 20.796875 27.488281 24.421875 27.488281 28.890625 Z M 27.488281 28.890625 " fill-opacity="1" fill-rule="nonzero"/><g fill="#2720ff" fill-opacity="1"><g transform="translate(49.17939, 24.22088)"><g><path d="M 1.8125 -14.046875 L 6.921875 -14.046875 C 8.003906 -14.046875 8.992188 -13.859375 9.890625 -13.484375 C 10.796875 -13.117188 11.578125 -12.617188 12.234375 -11.984375 C 12.898438 -11.359375 13.414062 -10.617188 13.78125 -9.765625 C 14.15625 -8.910156 14.34375 -7.992188 14.34375 -7.015625 C 14.34375 -6.046875 14.15625 -5.128906 13.78125 -4.265625 C 13.414062 -3.410156 12.898438 -2.671875 12.234375 -2.046875 C 11.578125 -1.421875 10.796875 -0.921875 9.890625 -0.546875 C 8.992188 -0.179688 8.003906 0 6.921875 0 L 1.8125 0 Z M 6.921875 -2.8125 C 7.546875 -2.8125 8.125 -2.914062 8.65625 -3.125 C 9.1875 -3.34375 9.640625 -3.640625 10.015625 -4.015625 C 10.398438 -4.390625 10.695312 -4.832031 10.90625 -5.34375 C 11.125 -5.863281 11.234375 -6.421875 11.234375 -7.015625 C 11.234375 -7.617188 11.125 -8.175781 10.90625 -8.6875 C 10.695312 -9.207031 10.398438 -9.65625 10.015625 -10.03125 C 9.640625 -10.40625 9.1875 -10.695312 8.65625 -10.90625 C 8.125 -11.125 7.546875 -11.234375 6.921875 -11.234375 L 4.8125 -11.234375 L 4.8125 -2.8125 Z M 6.921875 -2.8125 "/></g></g></g><g fill="#2720ff" fill-opacity="1"><g transform="translate(64.022858, 24.22088)"><g><path d="M 8.53125 0.296875 C 7.445312 0.296875 6.4375 0.101562 5.5 -0.28125 C 4.570312 -0.664062 3.765625 -1.1875 3.078125 -1.84375 C 2.398438 -2.507812 1.867188 -3.285156 1.484375 -4.171875 C 1.097656 -5.066406 0.90625 -6.015625 0.90625 -7.015625 C 0.90625 -8.023438 1.097656 -8.972656 1.484375 -9.859375 C 1.867188 -10.742188 2.398438 -11.519531 3.078125 -12.1875 C 3.765625 -12.851562 4.570312 -13.378906 5.5 -13.765625 C 6.4375 -14.148438 7.445312 -14.34375 8.53125 -14.34375 C 9.613281 -14.34375 10.617188 -14.148438 11.546875 -13.765625 C 12.472656 -13.378906 13.273438 -12.851562 13.953125 -12.1875 C 14.640625 -11.519531 15.175781 -10.742188 15.5625 -9.859375 C 15.957031 -8.972656 16.15625 -8.023438 16.15625 -7.015625 C 16.15625 -6.015625 15.957031 -5.066406 15.5625 -4.171875 C 15.175781 -3.285156 14.640625 -2.507812 13.953125 -1.84375 C 13.273438 -1.1875 12.472656 -0.664062 11.546875 -0.28125 C 10.617188 0.101562 9.613281 0.296875 8.53125 0.296875 Z M 8.53125 -2.5 C 9.15625 -2.5 9.738281 -2.613281 10.28125 -2.84375 C 10.832031 -3.082031 11.3125 -3.40625 11.71875 -3.8125 C 12.132812 -4.226562 12.457031 -4.707031 12.6875 -5.25 C 12.925781 -5.800781 13.046875 -6.390625 13.046875 -7.015625 C 13.046875 -7.648438 12.925781 -8.238281 12.6875 -8.78125 C 12.457031 -9.332031 12.132812 -9.8125 11.71875 -10.21875 C 11.3125 -10.625 10.832031 -10.941406 10.28125 -11.171875 C 9.738281 -11.410156 9.15625 -11.53125 8.53125 -11.53125 C 7.894531 -11.53125 7.300781 -11.410156 6.75 -11.171875 C 6.207031 -10.941406 5.734375 -10.625 5.328125 -10.21875 C 4.921875 -9.8125 4.597656 -9.332031 4.359375 -8.78125 C 4.128906 -8.238281 4.015625 -7.648438 4.015625 -7.015625 C 4.015625 -6.390625 4.128906 -5.800781 4.359375 -5.25 C 4.597656 -4.707031 4.921875 -4.226562 5.328125 -3.8125 C 5.734375 -3.40625 6.207031 -3.082031 6.75 -2.84375 C 7.300781 -2.613281 7.894531 -2.5 8.53125 -2.5 Z M 8.53125 -2.5 "/></g></g></g><g fill="#2720ff" fill-opacity="1"><g transform="translate(80.671612, 24.22088)"><g><path d="M 8.53125 0.296875 C 7.445312 0.296875 6.4375 0.101562 5.5 -0.28125 C 4.570312 -0.664062 3.765625 -1.1875 3.078125 -1.84375 C 2.398438 -2.507812 1.867188 -3.285156 1.484375 -4.171875 C 1.097656 -5.066406 0.90625 -6.015625 0.90625 -7.015625 C 0.90625 -8.023438 1.097656 -8.972656 1.484375 -9.859375 C 1.867188 -10.742188 2.398438 -11.519531 3.078125 -12.1875 C 3.765625 -12.851562 4.570312 -13.378906 5.5 -13.765625 C 6.4375 -14.148438 7.445312 -14.34375 8.53125 -14.34375 C 9.5 -14.34375 10.351562 -14.195312 11.09375 -13.90625 C 11.84375 -13.613281 12.460938 -13.289062 12.953125 -12.9375 C 13.535156 -12.519531 14.03125 -12.050781 14.4375 -11.53125 L 12.4375 -9.53125 C 12.144531 -9.90625 11.804688 -10.238281 11.421875 -10.53125 C 11.078125 -10.78125 10.664062 -11.007812 10.1875 -11.21875 C 9.707031 -11.425781 9.15625 -11.53125 8.53125 -11.53125 C 7.894531 -11.53125 7.300781 -11.410156 6.75 -11.171875 C 6.207031 -10.941406 5.734375 -10.625 5.328125 -10.21875 C 4.921875 -9.8125 4.597656 -9.332031 4.359375 -8.78125 C 4.128906 -8.238281 4.015625 -7.648438 4.015625 -7.015625 C 4.015625 -6.390625 4.128906 -5.800781 4.359375 -5.25 C 4.597656 -4.707031 4.921875 -4.226562 5.328125 -3.8125 C 5.734375 -3.40625 6.207031 -3.082031 6.75 -2.84375 C 7.300781 -2.613281 7.894531 -2.5 8.53125 -2.5 C 9.1875 -2.5 9.757812 -2.601562 10.25 -2.8125 C 10.75 -3.019531 11.171875 -3.253906 11.515625 -3.515625 C 11.921875 -3.804688 12.257812 -4.140625 12.53125 -4.515625 L 14.546875 -2.5 C 14.128906 -1.976562 13.628906 -1.515625 13.046875 -1.109375 C 12.535156 -0.753906 11.90625 -0.429688 11.15625 -0.140625 C 10.40625 0.148438 9.53125 0.296875 8.53125 0.296875 Z M 8.53125 0.296875 "/></g></g></g><g fill="#2720ff" fill-opacity="1"><g transform="translate(95.214199, 24.22088)"><g/></g></g><g fill="#2720ff" fill-opacity="1"><g transform="translate(99.025359, 24.22088)"><g><path d="M 8.53125 0.296875 C 7.445312 0.296875 6.4375 0.101562 5.5 -0.28125 C 4.570312 -0.664062 3.765625 -1.1875 3.078125 -1.84375 C 2.398438 -2.507812 1.867188 -3.285156 1.484375 -4.171875 C 1.097656 -5.066406 0.90625 -6.015625 0.90625 -7.015625 C 0.90625 -8.023438 1.097656 -8.972656 1.484375 -9.859375 C 1.867188 -10.742188 2.398438 -11.519531 3.078125 -12.1875 C 3.765625 -12.851562 4.570312 -13.378906 5.5 -13.765625 C 6.4375 -14.148438 7.445312 -14.34375 8.53125 -14.34375 C 9.613281 -14.34375 10.617188 -14.148438 11.546875 -13.765625 C 12.472656 -13.378906 13.273438 -12.851562 13.953125 -12.1875 C 14.640625 -11.519531 15.175781 -10.742188 15.5625 -9.859375 C 15.957031 -8.972656 16.15625 -8.023438 16.15625 -7.015625 C 16.15625 -6.015625 15.957031 -5.066406 15.5625 -4.171875 C 15.175781 -3.285156 14.640625 -2.507812 13.953125 -1.84375 C 13.273438 -1.1875 12.472656 -0.664062 11.546875 -0.28125 C 10.617188 0.101562 9.613281 0.296875 8.53125 0.296875 Z M 8.53125 -2.5 C 9.15625 -2.5 9.738281 -2.613281 10.28125 -2.84375 C 10.832031 -3.082031 11.3125 -3.40625 11.71875 -3.8125 C 12.132812 -4.226562 12.457031 -4.707031 12.6875 -5.25 C 12.925781 -5.800781 13.046875 -6.390625 13.046875 -7.015625 C 13.046875 -7.648438 12.925781 -8.238281 12.6875 -8.78125 C 12.457031 -9.332031 12.132812 -9.8125 11.71875 -10.21875 C 11.3125 -10.625 10.832031 -10.941406 10.28125 -11.171875 C 9.738281 -11.410156 9.15625 -11.53125 8.53125 -11.53125 C 7.894531 -11.53125 7.300781 -11.410156 6.75 -11.171875 C 6.207031 -10.941406 5.734375 -10.625 5.328125 -10.21875 C 4.921875 -9.8125 4.597656 -9.332031 4.359375 -8.78125 C 4.128906 -8.238281 4.015625 -7.648438 4.015625 -7.015625 C 4.015625 -6.390625 4.128906 -5.800781 4.359375 -5.25 C 4.597656 -4.707031 4.921875 -4.226562 5.328125 -3.8125 C 5.734375 -3.40625 6.207031 -3.082031 6.75 -2.84375 C 7.300781 -2.613281 7.894531 -2.5 8.53125 -2.5 Z M 8.53125 -2.5 "/></g></g></g><g fill="#2720ff" fill-opacity="1"><g transform="translate(115.674117, 24.22088)"><g><path d="M 0.40625 -9.734375 L 2.5 -14.4375 L 4.8125 -13.140625 L 2 -8.828125 Z M 0.40625 -9.734375 "/></g></g></g><g fill="#2720ff" fill-opacity="1"><g transform="translate(49.17939, 42.190132)"><g><path d="M 8.53125 0.296875 C 7.445312 0.296875 6.4375 0.101562 5.5 -0.28125 C 4.570312 -0.664062 3.765625 -1.1875 3.078125 -1.84375 C 2.398438 -2.507812 1.867188 -3.285156 1.484375 -4.171875 C 1.097656 -5.066406 0.90625 -6.015625 0.90625 -7.015625 C 0.90625 -8.023438 1.097656 -8.972656 1.484375 -9.859375 C 1.867188 -10.742188 2.398438 -11.519531 3.078125 -12.1875 C 3.765625 -12.851562 4.570312 -13.378906 5.5 -13.765625 C 6.4375 -14.148438 7.445312 -14.34375 8.53125 -14.34375 C 9.5 -14.34375 10.351562 -14.195312 11.09375 -13.90625 C 11.84375 -13.613281 12.460938 -13.289062 12.953125 -12.9375 C 13.535156 -12.519531 14.03125 -12.050781 14.4375 -11.53125 L 12.4375 -9.53125 C 12.144531 -9.90625 11.804688 -10.238281 11.421875 -10.53125 C 11.078125 -10.78125 10.664062 -11.007812 10.1875 -11.21875 C 9.707031 -11.425781 9.15625 -11.53125 8.53125 -11.53125 C 7.894531 -11.53125 7.300781 -11.410156 6.75 -11.171875 C 6.207031 -10.941406 5.734375 -10.625 5.328125 -10.21875 C 4.921875 -9.8125 4.597656 -9.332031 4.359375 -8.78125 C 4.128906 -8.238281 4.015625 -7.648438 4.015625 -7.015625 C 4.015625 -6.390625 4.128906 -5.800781 4.359375 -5.25 C 4.597656 -4.707031 4.921875 -4.226562 5.328125 -3.8125 C 5.734375 -3.40625 6.207031 -3.082031 6.75 -2.84375 C 7.300781 -2.613281 7.894531 -2.5 8.53125 -2.5 C 9.1875 -2.5 9.757812 -2.601562 10.25 -2.8125 C 10.75 -3.019531 11.171875 -3.253906 11.515625 -3.515625 C 11.921875 -3.804688 12.257812 -4.140625 12.53125 -4.515625 L 14.546875 -2.5 C 14.128906 -1.976562 13.628906 -1.515625 13.046875 -1.109375 C 12.535156 -0.753906 11.90625 -0.429688 11.15625 -0.140625 C 10.40625 0.148438 9.53125 0.296875 8.53125 0.296875 Z M 8.53125 0.296875 "/></g></g></g><g fill="#2720ff" fill-opacity="1"><g transform="translate(63.721977, 42.190132)"><g><path d="M 1.8125 -14.046875 L 4.8125 -14.046875 L 4.8125 -2.8125 L 11.328125 -2.8125 L 11.328125 0 L 1.8125 0 Z M 1.8125 -14.046875 "/></g></g></g><g fill="#2720ff" fill-opacity="1"><g transform="translate(75.055169, 42.190132)"><g><path d="M 8.53125 0.296875 C 7.445312 0.296875 6.4375 0.101562 5.5 -0.28125 C 4.570312 -0.664062 3.765625 -1.1875 3.078125 -1.84375 C 2.398438 -2.507812 1.867188 -3.285156 1.484375 -4.171875 C 1.097656 -5.066406 0.90625 -6.015625 0.90625 -7.015625 C 0.90625 -8.023438 1.097656 -8.972656 1.484375 -9.859375 C 1.867188 -10.742188 2.398438 -11.519531 3.078125 -12.1875 C 3.765625 -12.851562 4.570312 -13.378906 5.5 -13.765625 C 6.4375 -14.148438 7.445312 -14.34375 8.53125 -14.34375 C 9.613281 -14.34375 10.617188 -14.148438 11.546875 -13.765625 C 12.472656 -13.378906 13.273438 -12.851562 13.953125 -12.1875 C 14.640625 -11.519531 15.175781 -10.742188 15.5625 -9.859375 C 15.957031 -8.972656 16.15625 -8.023438 16.15625 -7.015625 C 16.15625 -6.015625 15.957031 -5.066406 15.5625 -4.171875 C 15.175781 -3.285156 14.640625 -2.507812 13.953125 -1.84375 C 13.273438 -1.1875 12.472656 -0.664062 11.546875 -0.28125 C 10.617188 0.101562 9.613281 0.296875 8.53125 0.296875 Z M 8.53125 -2.5 C 9.15625 -2.5 9.738281 -2.613281 10.28125 -2.84375 C 10.832031 -3.082031 11.3125 -3.40625 11.71875 -3.8125 C 12.132812 -4.226562 12.457031 -4.707031 12.6875 -5.25 C 12.925781 -5.800781 13.046875 -6.390625 13.046875 -7.015625 C 13.046875 -7.648438 12.925781 -8.238281 12.6875 -8.78125 C 12.457031 -9.332031 12.132812 -9.8125 11.71875 -10.21875 C 11.3125 -10.625 10.832031 -10.941406 10.28125 -11.171875 C 9.738281 -11.410156 9.15625 -11.53125 8.53125 -11.53125 C 7.894531 -11.53125 7.300781 -11.410156 6.75 -11.171875 C 6.207031 -10.941406 5.734375 -10.625 5.328125 -10.21875 C 4.921875 -9.8125 4.597656 -9.332031 4.359375 -8.78125 C 4.128906 -8.238281 4.015625 -7.648438 4.015625 -7.015625 C 4.015625 -6.390625 4.128906 -5.800781 4.359375 -5.25 C 4.597656 -4.707031 4.921875 -4.226562 5.328125 -3.8125 C 5.734375 -3.40625 6.207031 -3.082031 6.75 -2.84375 C 7.300781 -2.613281 7.894531 -2.5 8.53125 -2.5 Z M 8.53125 -2.5 "/></g></g></g><g fill="#2720ff" fill-opacity="1"><g transform="translate(91.703923, 42.190132)"><g><path d="M 8.53125 0.296875 C 7.445312 0.296875 6.4375 0.101562 5.5 -0.28125 C 4.570312 -0.664062 3.765625 -1.1875 3.078125 -1.84375 C 2.398438 -2.507812 1.867188 -3.285156 1.484375 -4.171875 C 1.097656 -5.066406 0.90625 -6.015625 0.90625 -7.015625 C 0.90625 -8.023438 1.097656 -8.972656 1.484375 -9.859375 C 1.867188 -10.742188 2.398438 -11.519531 3.078125 -12.1875 C 3.765625 -12.851562 4.570312 -13.378906 5.5 -13.765625 C 6.4375 -14.148438 7.445312 -14.34375 8.53125 -14.34375 C 9.5 -14.34375 10.351562 -14.195312 11.09375 -13.90625 C 11.84375 -13.613281 12.460938 -13.289062 12.953125 -12.9375 C 13.535156 -12.519531 14.03125 -12.050781 14.4375 -11.53125 L 12.4375 -9.53125 C 12.144531 -9.90625 11.804688 -10.238281 11.421875 -10.53125 C 11.078125 -10.78125 10.664062 -11.007812 10.1875 -11.21875 C 9.707031 -11.425781 9.15625 -11.53125 8.53125 -11.53125 C 7.894531 -11.53125 7.300781 -11.410156 6.75 -11.171875 C 6.207031 -10.941406 5.734375 -10.625 5.328125 -10.21875 C 4.921875 -9.8125 4.597656 -9.332031 4.359375 -8.78125 C 4.128906 -8.238281 4.015625 -7.648438 4.015625 -7.015625 C 4.015625 -6.390625 4.128906 -5.800781 4.359375 -5.25 C 4.597656 -4.707031 4.921875 -4.226562 5.328125 -3.8125 C 5.734375 -3.40625 6.207031 -3.082031 6.75 -2.84375 C 7.300781 -2.613281 7.894531 -2.5 8.53125 -2.5 C 9.1875 -2.5 9.757812 -2.601562 10.25 -2.8125 C 10.75 -3.019531 11.171875 -3.253906 11.515625 -3.515625 C 11.921875 -3.804688 12.257812 -4.140625 12.53125 -4.515625 L 14.546875 -2.5 C 14.128906 -1.976562 13.628906 -1.515625 13.046875 -1.109375 C 12.535156 -0.753906 11.90625 -0.429688 11.15625 -0.140625 C 10.40625 0.148438 9.53125 0.296875 8.53125 0.296875 Z M 8.53125 0.296875 "/></g></g></g><g fill="#2720ff" fill-opacity="1"><g transform="translate(106.24651, 42.190132)"><g><path d="M 1.8125 -14.046875 L 4.8125 -14.046875 L 4.8125 -8.03125 L 10.234375 -14.046875 L 13.84375 -14.046875 L 8.625 -8.21875 L 14.25 0 L 10.734375 0 L 6.625 -6.015625 L 4.8125 -4.109375 L 4.8125 0 L 1.8125 0 Z M 1.8125 -14.046875 "/></g></g></g></svg>